<svg width="118" height="100" viewBox="0 0 118 100" fill="none" xmlns="http://www.w3.org/2000/svg">
<path d="M81.4561 18.4437H52.2069V99.0926H28.7138V18.4437H0V0H81.4561V18.4437Z" fill="#EB5757"/>
<path d="M118 33.0309V76.2704C118 81.1706 116.974 85.4204 114.921 89.02C112.869 92.5892 109.924 95.3116 106.086 97.1869C102.249 99.0623 97.7122 100 92.4766 100C84.5638 100 78.3317 97.9129 73.7803 93.7387C69.229 89.5644 66.9087 83.8475 66.8194 76.588V33.0309H82.5707V76.9056C82.7492 84.1349 86.0512 87.7495 92.4766 87.7495C95.7191 87.7495 98.1733 86.8421 99.8391 85.0272C101.505 83.2123 102.338 80.2632 102.338 76.1797V33.0309H118Z" fill="#EB5757"/>
</svg>
