<?xml version="1.0" standalone="no"?>
<!DOCTYPE svg PUBLIC "-//W3C//DTD SVG 20010904//EN"
 "http://www.w3.org/TR/2001/REC-SVG-20010904/DTD/svg10.dtd">
<svg version="1.0" xmlns="http://www.w3.org/2000/svg"
 width="944.000000pt" height="944.000000pt" viewBox="0 0 944.000000 944.000000"
 preserveAspectRatio="xMidYMid meet">
<metadata>
Created by potrace 1.11, written by Peter Selinger 2001-2013
</metadata>
<g transform="translate(0.000000,944.000000) scale(0.100000,-0.100000)"
fill="#000000" stroke="none">
<path d="M0 7982 l0 -737 1148 0 1149 0 -1 -3210 c-1 -1765 0 -3217 2 -3226 3
-15 82 -17 938 -17 514 0 935 3 935 7 1 3 3 1455 4 3226 l1 3220 1170 0 1169
0 0 738 1 737 -3258 0 -3258 0 0 -738z"/>
<path d="M5348 6066 c-6 -18 0 -3585 6 -3656 3 -36 7 -76 10 -90 3 -14 8 -47
12 -75 10 -80 11 -88 22 -130 6 -22 13 -52 16 -66 17 -102 123 -357 193 -466
18 -29 33 -56 33 -62 0 -5 4 -11 8 -13 4 -2 30 -33 57 -69 58 -77 136 -162
219 -237 61 -55 216 -169 245 -180 9 -3 18 -9 21 -13 8 -11 166 -88 265 -129
41 -17 135 -50 157 -54 13 -3 57 -14 98 -25 77 -21 225 -50 295 -57 22 -2 69
-7 105 -11 85 -9 485 -10 575 -1 164 16 351 51 475 88 57 17 52 16 70 22 8 3
44 16 80 29 141 50 320 143 425 221 125 94 233 195 316 298 24 30 47 56 52 58
4 2 7 8 7 13 0 6 17 36 39 67 59 87 136 246 176 362 1 3 4 12 8 20 12 31 37
116 41 140 3 14 5 25 6 25 1 0 3 12 5 26 2 14 8 43 14 65 5 21 13 66 17 99 3
33 9 69 12 80 4 11 8 855 9 1876 l4 1856 -626 0 c-344 0 -625 -3 -626 -6 0 -3
-2 -823 -4 -1821 -1 -998 -5 -1830 -9 -1847 -3 -18 -8 -45 -10 -60 -30 -194
-97 -342 -201 -448 -80 -81 -221 -150 -370 -181 -48 -10 -323 -12 -363 -3 -21
4 -48 10 -62 12 -85 15 -244 87 -282 127 -10 10 -26 24 -36 32 -58 42 -174
229 -188 303 -2 14 -9 36 -14 51 -6 15 -13 43 -16 63 -3 20 -7 43 -9 51 -16
58 -19 342 -19 1933 l0 1788 -21 4 c-11 2 -293 3 -627 3 -433 -1 -608 -4 -610
-12z"/>
</g>
</svg>
